<svg xmlns="http://www.w3.org/2000/svg"
shape-rendering="geometricPrecision"
width="4000" height="4000" viewBox="0 0 1024 1024"><rect width="100%" height="100%" fill="#E6E7EB" />
  <metadata>null</metadata>

<path d="
M 0.067 676.989
C 4.512 676.19 9.487 676.778 13.999 676.777
C 23.166 676.775 32.333 676.769 41.499 676.769
C 69.999 676.769 98.499 676.774 126.999 676.774
C 215.499 676.774 303.998 676.784 392.498 676.817
C 422.998 676.828 453.498 676.824 483.999 676.802
C 491.166 676.797 498.335 676.752 505.502 676.805
C 506.717 676.814 511.731 676.359 511.849 677.464
C 511.51 680.38 511.817 683.553 511.816 686.5
C 511.816 692.334 511.806 698.168 511.808 704.002
C 511.817 721.835 511.824 739.668 511.839 757.501
C 511.871 794.335 511.824 831.169 511.819 868.002
C 511.816 889.734 512.069 911.477 511.712 933.206
C 516.235 932.812 520.959 933.164 525.502 933.166
C 534.502 933.171 543.502 933.171 552.503 933.167
C 579.669 933.153 606.835 933.137 634.002 933.131
C 716.168 933.111 798.334 933.132 880.5 933.112
C 914.834 933.103 949.168 933.094 983.501 933.11
C 993.168 933.115 1002.834 933.163 1012.5 933.213
C 1015.167 933.226 1017.835 933.265 1020.502 933.252
C 1021.639 933.247 1022.951 933.008 1023.999 933.517
C 1023.43 963.635 1023.674 993.883 1023.998 1024.006
C 1014.08 1023.382 1003.937 1023.968 993.998 1023.968
C 973.998 1023.968 953.998 1023.968 933.997 1023.968
C 873.998 1023.968 813.998 1023.968 753.998 1023.968
C 586.164 1023.968 418.331 1023.973 250.498 1023.968
C 194.498 1023.966 138.498 1023.968 82.498 1023.968
C 63.998 1023.968 45.498 1023.966 26.998 1023.968
C 18.014 1023.969 8.974 1024.267 -0.003 1023.996
C 0.191 946 0.029 867.998 0.034 790
C 0.035 764.834 0.037 739.667 0.033 714.5
C 0.031 706.165 0.028 697.83 0.03 689.495
C 0.03 685.402 -0.386 681.051 0.067 676.989 Z
M 102.934 799.093
C 102.034 804.902 102.105 812.002 103.363 817.76
C 105.274 826.507 111.301 832.546 118.777 836.922
C 121.235 838.362 124.566 840.445 127.498 840.568
C 129.153 840.637 131.141 839.685 132.672 839.119
C 137.947 837.17 142.774 833.986 146.567 829.833
C 152.849 822.954 153.403 814.697 153.41 805.836
C 153.413 802.889 153.424 799.941 153.397 796.994
C 153.387 795.892 153.613 794.306 153.08 793.321
C 151.734 792.685 150.164 792.72 148.851 792.028
C 147.854 791.063 147.393 789.502 146.519 788.394
C 144.088 785.312 140.722 782.635 137.077 781.137
C 122.613 775.195 106.098 783.793 102.934 799.093 Z
M 164.338 820.855
C 165.178 824.165 166.068 827.032 169.027 829.082
C 176.081 833.969 189.391 831.919 191.1 822.393
C 191.281 821.381 191.179 820.27 190.881 819.291
C 189.033 813.219 183.008 813.073 177.777 812.155
C 175.294 811.72 171.884 810.91 171.467 807.912
C 170.877 803.673 177.577 803.09 180.412 803.974
C 183.101 804.812 183.544 806.723 184.456 808.982
C 186.43 808.774 188.462 808.814 190.445 808.799
C 189.663 801.078 182.346 797.868 175.442 798.577
C 171.323 799 166.959 801.16 165.773 805.453
C 165.477 806.522 165.353 807.641 165.471 808.746
C 166.176 815.331 172.157 816.522 177.677 817.464
C 180.037 817.866 184.531 818.334 184.66 821.54
C 184.791 824.792 181.841 826.102 179.039 826.119
C 175.023 826.143 171.93 825.065 170.91 820.948
C 168.988 820.446 166.293 820.574 164.338 820.855 Z
M 194.378 821.549
C 192.706 826.946 197.055 831.546 202.361 831.285
C 205.585 831.127 207.257 829.741 209.625 827.792
C 209.846 828.857 209.276 829.899 209.446 830.95
C 211.401 830.805 213.392 830.896 215.355 830.827
C 215.436 826.1 215.378 821.313 215.231 816.584
C 215.157 814.208 214.894 811.295 213.145 809.496
C 209.302 805.544 199.592 806.106 196.479 810.725
C 195.665 811.933 195.795 813.247 195.777 814.623
C 197.029 815.183 199.002 814.792 200.326 814.582
C 201.125 813.9 201.394 812.766 202.329 812.222
C 204.083 811.201 207.661 811.086 208.91 812.933
C 209.62 813.982 209.519 815.481 209.655 816.695
C 208.562 816.397 206.877 816.714 205.727 816.746
C 201.216 816.872 196.746 817.228 194.378 821.549 Z
M 218.307 807.354
C 218.303 808.986 217.883 810.58 218.18 812.214
C 219.35 812.087 220.792 811.742 221.95 811.948
C 221.557 816.44 221.899 821.153 221.922 825.666
C 221.928 826.955 221.469 829.62 222.139 830.717
C 224.09 830.645 226.188 831.029 228.12 830.763
C 227.609 828.957 227.852 826.855 227.836 824.995
C 227.8 820.774 228.036 816.474 227.779 812.264
C 229.782 812.066 231.75 812.488 233.741 812.412
C 233.776 811.042 234.095 808.691 233.644 807.425
C 231.939 807.185 230.059 807.363 228.338 807.404
C 228.17 806.081 228.481 804.667 228.758 803.379
C 230.212 803.236 231.739 803.452 233.167 803.256
C 233.182 801.715 232.998 799.788 233.268 798.29
C 229.581 798.065 224.466 798.223 222.536 802.102
C 221.757 803.669 222.348 805.808 222.063 807.491
C 220.812 807.429 219.56 807.382 218.307 807.354 Z
M 234.889 816.082
C 233.346 825.995 241.078 833.507 250.965 830.865
C 253.391 830.217 255.386 828.624 256.693 826.493
C 257.208 825.654 257.905 824.363 257.302 823.461
C 255.949 822.912 253.964 822.908 252.515 823.01
C 251.24 826.829 245.9 827.493 242.814 825.186
C 241.466 824.179 240.925 822.696 240.442 821.149
C 244.53 821.194 248.613 821.01 252.704 821.071
C 253.93 821.089 256.501 821.531 257.507 820.828
C 258.151 817.071 256.994 812.386 254.179 809.749
C 249.568 805.427 241.678 806.253 237.591 810.773
C 236.138 812.38 235.44 814.029 234.889 816.082 Z
M 262.297 799.218
C 262.284 806.807 262.368 814.405 262.286 821.995
C 262.264 823.995 262.255 825.996 262.24 827.996
C 262.234 828.848 262.001 830.172 262.401 830.914
C 266.681 830.716 270.981 830.774 275.266 830.807
C 278.186 830.83 281.326 831.027 283.998 829.638
C 288.527 827.284 289.762 820.767 286.765 816.719
C 285.813 815.433 284.522 814.99 283.116 814.416
C 283.524 813.695 284.486 813.326 285.099 812.718
C 286.028 811.798 286.552 810.551 286.811 809.279
C 287.027 808.217 287.012 807.083 286.827 806.018
C 285.362 797.568 274.775 799.11 268.526 799.034
C 266.446 799.009 264.358 798.863 262.297 799.218 Z
M 292.714 807.777
C 292.41 811.376 292.684 815.015 292.692 818.624
C 292.697 821.378 292.433 824.435 293.438 827.055
C 294.966 831.039 301.319 832.659 304.952 830.555
C 306.296 829.777 307.159 828.372 308.178 827.252
C 308.251 828.455 307.719 829.796 307.909 830.969
C 309.991 830.673 312.098 831.027 314.179 830.819
C 313.904 828.619 314.145 826.23 314.117 824.004
C 314.048 818.543 314.073 813.079 313.97 807.622
C 312.498 807.266 309.636 807.021 308.321 807.815
C 308.3 811.292 308.245 814.768 308.253 818.246
C 308.257 819.994 308.52 822.178 307.816 823.82
C 306.481 826.938 300.913 827.696 299.228 824.46
C 298.566 823.19 298.725 821.405 298.674 820.011
C 298.531 816.144 299.294 811.607 298.537 807.836
C 296.602 807.652 294.652 807.746 292.714 807.777 Z
M 319.768 798.824
C 320.145 801.28 319.821 804.002 319.813 806.494
C 319.796 811.661 319.783 816.828 319.803 821.995
C 319.812 824.159 319.825 826.323 319.851 828.487
C 319.859 829.177 319.652 830.259 319.974 830.847
C 321.528 830.885 324.29 831.424 325.723 830.918
C 325.633 829.644 325.596 828.382 325.562 827.106
C 325.99 827.011 326.176 827.624 326.418 827.943
C 327.129 828.882 327.579 829.84 328.588 830.518
C 331.139 832.232 335.701 831.444 338.109 829.842
C 344.934 825.303 344.943 810.254 336.421 807.527
C 333.646 806.64 330.118 806.81 328.011 809.029
C 327.376 809.698 326.674 811.572 325.91 811.895
C 326.188 808.905 325.92 805.875 325.886 802.87
C 325.872 801.717 326.196 799.765 325.644 798.758
C 323.679 798.728 321.729 798.788 319.768 798.824 Z
M 347.543 799.635
C 347.598 806.292 347.512 812.956 347.446 819.617
C 347.41 823.233 346.916 827.271 347.583 830.832
C 349.461 830.835 351.341 830.878 353.22 830.898
C 353.238 829.667 353.072 828.401 353.023 827.167
C 353.962 827.453 354.827 828.933 355.641 829.551
C 357.734 831.138 360.378 831.531 362.928 830.989
C 370.16 829.45 371.783 820.892 370.26 814.669
C 369.471 811.442 367.455 808.223 364.132 807.198
C 361.448 806.37 358.01 806.845 355.884 808.745
C 355.006 809.53 354.424 810.876 353.382 811.431
C 353.266 808.653 353.407 805.789 353.421 802.998
C 353.427 801.671 353.764 800.146 353.449 798.849
C 353.061 798.507 352.466 798.67 351.969 798.668
C 350.499 798.663 348.92 798.514 347.496 798.897
C 347.512 799.143 347.527 799.389 347.543 799.635 Z
M 375.681 798.776
C 375.776 806.343 375.646 813.925 375.637 821.496
C 375.633 824.197 374.742 828.504 375.774 830.997
C 377.761 830.935 379.822 831.209 381.788 831.08
C 381.863 823.731 381.706 816.355 381.643 809.001
C 381.617 805.972 382.32 801.796 381.503 798.899
C 379.569 798.734 377.619 798.754 375.681 798.776 Z
M 385.871 816.082
C 384.63 824.115 389.344 831.532 397.981 831.314
C 401.732 831.219 405.544 829.711 407.664 826.491
C 408.246 825.607 408.991 824.432 408.755 823.337
C 407.675 823.024 404.078 822.52 403.149 823.174
C 401.776 826.693 397.127 827.599 394.017 825.529
C 392.385 824.442 391.869 822.944 391.431 821.125
C 397.242 820.885 403.059 821.277 408.86 820.997
C 409.383 819.956 409.144 818.356 409.002 817.241
C 408.514 813.436 406.177 809.742 402.603 808.143
C 395.465 804.951 387.821 808.761 385.871 816.082 Z"
opacity="1" fill="rgb(76,180,178)" fill-rule="evenodd" />
<path d="
M 106.915 799.58
C 110.115 787.048 122.87 779.984 135.07 784.84
C 137.803 785.928 142.877 788.244 143.871 791.32
C 137.807 790.362 131.594 787.128 125.369 788.26
C 118.768 789.46 114.463 796.258 118.058 802.458
C 120.806 807.197 125.96 806.434 129.935 809.155
C 132.295 810.771 132.947 813.958 131.272 816.338
C 129.05 819.496 124.227 818.477 121.011 817.899
C 115.188 816.852 108.846 813.636 106.999 807.487
C 106.26 805.029 106.406 802.068 106.915 799.58 Z"
opacity="1" fill="rgb(81,184,181)" fill-rule="evenodd" />
<path d="
M 107.115 815.014
C 107.39 815.213 107.666 815.412 107.941 815.612
C 109.125 816.943 110.568 818.043 111.717 819.412
C 113.025 820.97 113.927 822.818 115.24 824.384
C 118.266 827.989 123.145 831.169 128.037 831.204
C 135.52 831.256 142.647 823.529 144.506 816.796
C 145.295 813.936 145.305 810.94 145.288 807.999
C 145.275 805.881 145.936 802.031 144.837 800.159
C 142.054 798.468 138.461 797.958 135.301 797.286
C 133.175 796.833 131.043 796.229 128.859 796.3
C 128.653 797.147 128.55 797.866 128.726 798.727
C 129.335 799.873 130.961 800.092 132.098 800.439
C 135.098 801.354 138.139 802.199 141.068 803.322
C 141.525 804.633 141.334 806.458 141.382 807.852
C 141.507 811.504 141.089 814.975 139.52 818.306
C 136.657 824.386 129.342 828.642 122.88 825.647
C 120.693 824.633 119.16 823.067 117.591 821.283
C 117.933 820.678 118.518 821.162 119.093 821.29
C 120.724 821.652 122.435 821.957 124.103 822.082
C 128.824 822.435 133.858 820.716 135.533 815.873
C 135.899 814.814 136.113 813.524 136.033 812.4
C 135.921 810.832 135.688 809.186 134.713 807.899
C 131.308 803.405 123.299 805.293 121.063 799.373
C 119.736 795.86 122.708 792.483 126.156 792.048
C 128.724 791.725 130.938 792.738 133.335 793.439
C 136.16 794.265 139.059 794.9 141.941 795.5
C 144.153 795.961 147.051 795.893 149.064 796.913
C 149.848 797.697 149.369 799.936 149.349 800.994
C 149.271 805.017 149.413 809.077 149.041 813.087
C 148.236 821.756 143.529 828.787 135.886 832.998
C 133.27 834.44 130.105 836.125 127.015 835.884
C 124.283 835.671 121.658 834.08 119.389 832.662
C 112.737 828.503 108.754 822.63 107.115 815.014 Z"
opacity="1" fill="rgb(83,184,180)" fill-rule="evenodd" />
<path d="
M 199.987 824.156
C 199.947 823.487 200.007 822.996 200.31 822.394
C 202.456 820.356 206.843 820.193 209.687 820.277
C 211.324 825.768 201.416 829.933 199.987 824.156 Z"
opacity="1" fill="rgb(82,186,187)" fill-rule="evenodd" />
<path d="
M 240.815 816.725
C 241.565 815.07 242.135 813.216 243.813 812.243
C 247.763 809.952 251.867 813.009 252.242 817.119
C 248.517 816.669 244.622 817.167 240.878 817
C 240.857 816.908 240.836 816.816 240.815 816.725 Z"
opacity="0.996" fill="rgb(96,188,182)" fill-rule="evenodd" />
<path d="
M 254.714 458.683
C 258.966 457.783 264.198 458.647 268.531 458.876
C 269.791 467.149 277.172 470.439 284.957 469.64
C 290.087 469.113 296.003 466.684 295.276 460.541
C 294.996 458.171 293.269 456.581 291.279 455.49
C 287.482 453.409 282.703 452.809 278.506 451.956
C 272.994 450.837 267.04 449.013 262.656 445.345
C 256.798 440.442 255.193 431.297 257.286 424.196
C 262.604 406.151 290.49 403.875 302.618 416.001
C 307.145 420.528 308.071 426.322 308.31 432.407
C 304.081 432.327 299.848 432.098 295.623 432.023
C 295.071 431.022 295.049 429.831 294.583 428.786
C 293.55 426.475 291.873 424.537 289.585 423.408
C 283.457 420.383 269.446 421.402 270.923 431.071
C 271.968 437.906 282.391 438.567 287.686 439.687
C 296.795 441.614 306.577 445.212 309.139 455.221
C 309.628 457.131 309.754 459.114 309.695 461.079
C 309.627 463.347 309.309 465.662 308.644 467.836
C 304.052 482.848 283.72 484.912 270.913 480.944
C 267.808 479.982 264.8 478.517 262.272 476.453
C 256.943 472.1 255.019 465.269 254.714 458.683 Z"
opacity="1" fill="rgb(7,39,58)" fill-rule="evenodd" />
<path d="
M 268.378 804.908
C 269.174 804.407 270.076 804.453 271.008 804.405
C 273.394 804.28 277.407 803.635 279.464 805.103
C 281.909 806.847 281.469 810.879 278.767 812.116
C 276.07 813.351 271.527 812.545 268.68 812.271
C 268.229 811.661 268.395 810.728 268.382 809.994
C 268.351 808.292 268.267 806.609 268.378 804.908 Z"
opacity="1" fill="rgb(82,189,183)" fill-rule="evenodd" />
<path d="
M 268.523 818.116
C 268.533 817.934 268.543 817.752 268.554 817.57
C 269.685 817.155 270.94 817.254 272.14 817.252
C 274.784 817.247 278.259 816.678 280.642 818.06
C 283.109 819.49 282.558 823.513 280.249 824.816
C 277.347 826.454 271.85 825.411 268.647 825.138
C 268.455 822.837 268.447 820.424 268.523 818.116 Z"
opacity="1" fill="rgb(82,185,183)" fill-rule="evenodd" />
<path d="
M 274.825 514.871
C 275.192 514.302 277.696 514.15 278.349 514.521
C 278.675 517.923 280.971 519.937 284.483 519.823
C 286.831 519.746 289.839 518.715 289.983 515.893
C 290.1 513.603 287.327 512.527 285.488 512.282
C 280.993 511.682 273.702 510.188 275.692 503.874
C 277.385 498.504 284.972 497.91 289.141 500.429
C 290.878 501.479 293.051 503.909 292.75 506.126
C 291.728 506.398 290.716 506.687 289.653 506.673
C 289.231 503.536 286.851 501.936 283.791 501.84
C 281.542 501.769 278.807 502.883 278.924 505.518
C 279.026 507.813 281.333 508.762 283.302 509.129
C 287.515 509.915 294.623 511.142 292.995 517.319
C 291.539 522.846 283.016 523.687 278.767 521.187
C 276.351 519.765 275.376 517.495 274.825 514.871 Z"
opacity="1" fill="rgb(14,47,66)" fill-rule="evenodd" />
<path d="
M 295.896 512.083
C 296.919 507.576 301.585 505.464 305.911 506.448
C 307.773 506.872 311.355 509.489 310.226 511.777
C 309.481 511.917 308.823 511.994 308.059 511.954
C 307.285 510.963 306.851 509.413 305.567 508.92
C 298.275 506.119 295.999 519.128 302.763 519.871
C 304.157 520.024 305.616 519.679 306.743 518.838
C 308.18 517.766 308.452 516.591 310.448 516.617
C 311.975 518.439 308.382 521.137 306.829 521.671
C 300.431 523.871 294.085 519.007 295.896 512.083 Z"
opacity="1" fill="rgb(13,49,66)" fill-rule="evenodd" />
<path d="
M 312.927 517.081
C 313.895 512.479 320.499 512.853 324.066 512.994
C 325.098 509.689 320.75 507.618 318.198 509.017
C 317.025 509.661 316.666 511.215 315.455 511.769
C 314.837 511.802 314.279 511.755 313.665 511.684
C 312.941 505.769 322.38 504.691 325.502 508.075
C 328.481 511.305 326.311 517.909 326.923 521.864
C 325.926 521.788 324.837 521.765 323.861 521.982
C 323.88 521.34 323.858 520.728 323.646 520.115
C 322.508 520.698 321.529 521.654 320.293 522.038
C 316.506 523.213 312.796 521.203 312.927 517.081 Z
M 315.877 517.087
C 315.965 521.283 320.812 520.356 323.069 518.37
C 324.114 517.451 324.161 516.088 324.144 514.779
C 323.757 514.368 322.528 514.761 321.962 514.79
C 319.793 514.901 317.931 515.181 316.168 516.526
C 316.071 516.713 315.974 516.9 315.877 517.087 Z"
opacity="1" fill="rgb(12,47,66)" fill-rule="evenodd" />
<path d="
M 315.444 464.606
C 315.813 462.434 316.269 460.428 317.425 458.513
C 321.438 451.864 330.112 450.766 337.128 450.258
C 339.396 450.094 341.664 449.915 343.936 449.814
C 344.931 449.769 346.476 449.796 347.275 449.144
C 348.991 446.055 346.571 442.038 343.776 440.665
C 338.472 438.061 330.943 440.359 330.275 446.763
C 326.006 446.931 321.723 446.54 317.454 446.861
C 317.219 445.888 317.692 444.439 317.892 443.468
C 318.68 439.649 320.621 436.104 323.651 433.631
C 331.609 427.136 346.468 426.439 354.569 432.95
C 360.676 437.857 361.092 445.459 361.151 452.685
C 361.227 462.076 361.443 471.51 361.275 480.896
C 360.106 481.336 358.172 481.012 356.922 480.993
C 353.946 480.948 350.934 481.091 347.97 480.982
C 347.902 479.643 347.965 478.327 348.004 476.989
C 348.014 476.616 348.156 475.852 347.752 475.68
C 339.372 484.745 318.692 484.851 315.78 470.447
C 315.392 468.53 315.239 466.553 315.444 464.606 Z
M 329.38 463.547
C 327.671 470.514 335.991 473.465 341.344 470.918
C 346.421 468.502 347.445 463.479 347.942 458.42
C 342.034 458.461 332.505 457.42 329.38 463.547 Z"
opacity="1" fill="rgb(8,40,60)" fill-rule="evenodd" />
<path d="
M 326 818.614
C 326.049 817.329 326.134 815.808 326.779 814.671
C 328.336 811.926 332.261 810.34 334.861 812.697
C 336.819 814.472 336.855 817.692 336.732 820.128
C 336.529 824.197 332.913 828.888 328.547 825.557
C 326.329 823.865 325.899 821.22 326 818.614 Z"
opacity="1" fill="rgb(79,185,181)" fill-rule="evenodd" />
<path d="
M 330.93 506.838
C 331.761 506.325 333.065 506.459 334.017 506.39
C 333.978 507.159 333.84 508.157 334.004 508.901
C 334.562 509.02 334.623 508.299 334.882 507.924
C 335.394 507.183 336.178 506.618 337.046 506.41
C 338.17 506.255 339.345 506.159 340.475 506.299
C 347.231 507.14 345.34 517.108 345.311 521.864
C 344.38 521.882 342.948 522.123 342.139 521.67
C 341.979 518.353 343.06 513.806 341.758 510.681
C 340.409 507.445 335.801 507.732 334.489 510.808
C 333.491 513.149 334.077 516.851 334.156 519.374
C 334.167 519.726 334.431 521.741 334.043 521.87
C 333.025 521.865 331.985 521.836 330.976 521.961
C 330.388 520.76 330.839 518.835 330.855 517.499
C 330.895 513.945 330.9 510.391 330.93 506.838 Z"
opacity="1" fill="rgb(12,44,64)" fill-rule="evenodd" />
<path d="
M 353.873 816.577
C 354.694 812.666 359.741 809.506 362.954 813.022
C 364.945 815.201 365.062 819.008 364.484 821.751
C 363.596 825.969 358.728 827.978 355.489 824.671
C 353.519 822.659 353.324 819.195 353.873 816.577 Z"
opacity="1" fill="rgb(84,188,184)" fill-rule="evenodd" />
<path d="
M 355.914 506.907
C 355.952 506.793 355.99 506.678 356.028 506.564
C 356.971 506.599 357.913 506.645 358.856 506.687
C 359.015 505.72 358.738 504.416 358.658 503.433
C 359.425 502.607 361.068 502.95 362.102 503.063
C 362.175 504.172 361.901 505.618 362.242 506.647
C 363.132 506.665 365.742 505.928 366.312 506.531
C 366.358 506.994 366.642 508.882 366.361 509.145
C 365.175 509.035 362.969 508.366 362.097 509.32
C 361.849 511.75 361.852 514.223 361.875 516.667
C 361.882 517.499 361.744 518.728 362.312 519.376
C 363.722 519.784 365.29 519.554 366.708 519.286
C 366.922 520.023 366.486 521.107 366.265 521.819
C 365.456 522.42 364.27 522.158 363.329 522.073
C 362.183 521.97 360.707 521.872 359.815 521.053
C 358.909 520.22 358.866 518.628 358.824 517.496
C 358.724 514.796 358.755 511.996 358.975 509.305
C 357.973 508.934 356.948 509.783 355.952 509.571
C 355.981 508.686 355.929 507.793 355.914 506.907 Z"
opacity="0.996" fill="rgb(18,47,66)" fill-rule="evenodd" />
<path d="
M 366.422 429.808
C 369.264 429.225 372.43 429.64 375.319 429.633
C 375.589 428.44 375.242 426.788 375.217 425.548
C 375.173 423.326 375.32 421.126 375.797 418.952
C 377.556 410.937 385.279 408.059 392.681 408.051
C 394.691 408.049 396.691 408.225 398.698 408.293
C 399.284 408.314 400.389 408.137 400.796 408.573
C 400.803 412.479 400.933 416.496 400.684 420.391
C 396.924 421.38 391.091 418.175 389.344 423.646
C 389.088 424.449 389.033 425.345 388.976 426.181
C 388.89 427.423 388.891 428.658 388.987 429.899
C 392.768 429.658 396.668 429.847 400.456 429.937
C 400.326 433.827 399.975 438.087 400.42 441.953
C 396.89 441.74 392.601 441.412 389.125 442.067
C 387.801 455.032 389.309 468.319 388.868 481.336
C 384.312 481.095 379.631 481.052 375.07 481.112
C 374.11 468.071 375.292 454.805 375.046 441.747
C 373.033 441.741 371.019 441.658 369.006 441.631
C 368.305 441.621 367.023 441.919 366.427 441.602
C 366.569 437.688 366.452 433.723 366.422 429.808 Z"
opacity="1" fill="rgb(8,40,60)" fill-rule="evenodd" />
<path d="
M 368.485 512.081
C 371.133 503.425 384.155 505.132 384.679 514.128
C 384.743 515.226 384.752 516.323 384.417 517.386
C 381.491 526.677 365.495 521.857 368.485 512.081 Z
M 371.922 511.563
C 371.144 513.57 371.203 516.658 372.663 518.343
C 375.101 521.155 379.891 520.174 381.243 516.794
C 382.21 514.378 381.667 511.308 379.542 509.695
C 377.125 507.862 373.078 508.58 371.922 511.563 Z"
opacity="1" fill="rgb(10,42,61)" fill-rule="evenodd" />
<path d="
M 388.106 500.149
C 389.179 500.126 390.25 500.107 391.324 500.079
C 391.117 504.431 391.376 508.946 391.563 513.293
C 392.707 513.248 393.121 512.18 393.782 511.371
C 395.161 509.683 396.786 507.017 398.992 506.425
C 399.744 506.421 400.433 506.4 401.131 506.706
C 401.249 507.399 400.036 508.202 399.568 508.661
C 398.095 510.106 396.669 511.843 395.572 513.586
C 396.292 516.779 400.602 518.972 401.923 521.942
C 401.564 522.274 400.459 521.938 399.994 521.926
C 397.313 521.861 396.176 519.315 394.603 517.41
C 393.863 516.513 393.186 515.487 391.936 515.436
C 391.424 517.194 392.35 520.547 391.19 521.917
C 390.323 521.972 389.453 521.888 388.591 521.957
C 387.586 521.224 388.285 517.769 388.284 516.502
C 388.281 511.099 388.655 505.527 388.106 500.149 Z"
opacity="1" fill="rgb(12,43,65)" fill-rule="evenodd" />
<path d="
M 391.815 816.012
C 393.324 812.19 398.104 809.706 401.455 813.189
C 402.61 814.388 402.942 815.781 403.236 817.359
C 399.542 816.452 395.296 818.081 391.62 816.772
C 391.685 816.519 391.75 816.265 391.815 816.012 Z"
opacity="1" fill="rgb(91,189,186)" fill-rule="evenodd" />
<path d="
M 402.962 452.108
C 403.881 446.007 405.248 440.957 409.566 436.272
C 418.257 426.841 435.086 425.814 444.672 434.475
C 449.329 438.683 451.924 445.056 452.571 451.192
C 452.857 453.903 452.514 456.636 452.71 459.329
C 448.706 459.712 444.527 459.342 440.505 459.346
C 432.43 459.354 424.346 459.382 416.273 459.229
C 416.845 462.666 417.522 465.551 420.292 467.964
C 426.183 473.097 436.165 471.149 439.521 464.353
C 440.566 463.977 442.163 464.291 443.288 464.317
C 446.308 464.387 449.359 464.529 452.371 464.518
C 448.969 481.826 427.075 486.516 413.578 478.035
C 404.797 472.518 402.046 461.904 402.962 452.108 Z
M 416.379 450.224
C 416.376 450.33 416.372 450.437 416.369 450.543
C 423.728 450.66 431.562 451.192 438.888 450.431
C 438.922 441.715 429.1 437.047 421.854 441.303
C 418.348 443.362 417.594 446.708 416.379 450.224 Z"
opacity="1" fill="rgb(7,40,60)" fill-rule="evenodd" />
<path d="
M 402.969 513.605
C 403.895 508.073 410.484 503.56 415.744 507.358
C 418.43 509.298 418.607 512.073 419.053 515.07
C 417.938 515.438 416.191 515.071 415.01 514.983
C 412.206 514.773 408.845 514.644 406.119 515.315
C 406.644 519.181 410.02 521.151 413.728 519.553
C 414.763 519.108 415.364 517.884 416.042 517.054
C 416.968 516.879 417.756 517.033 418.671 517.226
C 418.907 520.227 414.25 522.17 411.926 522.335
C 406.628 522.713 402.554 519.061 402.969 513.605 Z
M 406.353 511.992
C 406.121 512.671 406.24 512.284 406.018 513.158
C 408.808 513.535 412.933 513.635 415.665 513.008
C 416.52 511.599 413.785 508.705 412.522 508.419
C 409.716 507.782 407.533 509.676 406.353 511.992 Z"
opacity="1" fill="rgb(11,44,63)" fill-rule="evenodd" />
<path d="
M 405.99 192.617
C 406.52 186.962 406.826 181.432 407.935 175.834
C 410.054 165.131 414.268 154.908 419.606 145.432
C 436.329 115.75 467.963 94.922 501.963 92.013
C 508.03 91.494 514.318 91.185 520.387 91.931
C 539.029 94.223 556.389 100.063 572.011 110.678
C 582.42 117.752 591.531 126.911 598.674 137.271
C 601.005 140.652 602.726 144.31 604.794 147.822
C 606.261 148.665 608.249 148.735 609.889 149.093
C 612.804 149.73 615.763 150.741 618.72 151.115
C 618.555 170.145 618.434 189.199 618.474 208.225
C 618.49 216.153 618.428 224.08 618.439 232.008
C 618.446 237.158 618.764 242.428 618.206 247.554
C 615.733 270.25 606.938 292.505 592.717 310.431
C 577.078 330.144 556.083 344.533 532.568 353.294
C 528.096 354.96 523.621 356.582 519.096 358.104
C 517.146 358.76 514.529 360.052 512.472 360.095
C 510.039 360.146 507.2 358.61 504.909 357.878
C 499.201 356.054 493.553 354.124 487.978 351.922
C 459.392 340.629 434.59 320.165 419.906 292.935
C 413.033 280.189 407.871 265.467 406.452 251.006
C 405.445 240.73 405.874 230.317 405.906 219.999
C 405.935 210.897 405.566 201.709 405.99 192.617 Z
M 422.45 190.126
C 419.85 225.934 446.208 258.779 479.052 269.905
C 493.756 274.886 511.268 277.993 524.123 266.944
C 526.116 265.23 527.835 263.224 529.287 261.035
C 535.826 251.176 535.884 237.689 528.571 228.259
C 521.872 219.621 512.047 217.981 502.59 213.86
C 494.182 210.195 486.956 204.538 481.715 196.98
C 470.882 181.358 472.594 159.196 485.09 145.074
C 489.832 139.716 496.302 135.504 502.993 133.032
C 512.779 129.417 522.568 131.119 532.48 133.221
C 544.114 135.689 555.718 138.295 567.364 140.701
C 572.596 141.782 578.03 143.728 583.357 144.152
C 583.413 144.055 582.82 143.424 582.713 143.277
C 582.129 142.475 581.511 141.689 580.904 140.904
C 578.214 137.425 575.153 134.338 571.862 131.435
C 558.262 119.441 541.677 110.757 523.496 108.495
C 513.651 107.27 503.237 107.221 493.514 109.436
C 467.069 115.461 443.38 132.908 431.24 157.427
C 427.793 164.388 425.169 171.945 423.763 179.592
C 423.122 183.08 423.067 186.663 422.45 190.126 Z
M 422.324 247.806
C 426.854 284.727 451.212 317.43 485.016 333.062
C 491.111 335.88 497.324 338.373 503.682 340.539
C 506.262 341.417 509.726 343.119 512.479 343.047
C 514.279 342.999 516.38 342.001 518.09 341.457
C 522.298 340.118 526.422 338.618 530.495 336.915
C 548.536 329.375 564.729 318.341 577.663 303.614
C 591.44 287.928 599.996 267.221 602.182 246.533
C 602.921 239.539 602.378 232.36 602.437 225.336
C 602.56 210.734 602.561 196.123 602.61 181.516
C 602.628 176.167 602.224 170.722 602.453 165.387
C 601.744 164.822 600.581 164.734 599.718 164.495
C 597.493 163.879 595.197 163.368 592.931 162.934
C 586.13 161.632 579.391 159.988 572.6 158.627
C 559.718 156.043 546.882 153.147 534.036 150.38
C 527.665 149.007 520.543 146.58 513.982 147.243
C 499.769 148.68 489.095 162.524 490.913 176.535
C 492.176 186.272 499.421 194.262 508.116 198.305
C 512.721 200.447 517.778 201.46 522.393 203.609
C 530.767 207.51 538.279 213.413 543.428 221.158
C 546.089 225.161 548.044 229.599 549.303 234.23
C 556.058 259.088 538.17 283.676 514.263 289.732
C 500.265 293.277 485.84 289.031 472.493 284.946
C 473.275 286.431 474.651 287.45 475.82 288.637
C 478.799 291.661 481.954 294.367 485.348 296.916
C 491.097 301.235 497.647 304.486 504.295 307.177
C 506.619 308.117 509.839 309.784 512.371 309.747
C 513.919 309.725 515.572 308.943 517.002 308.41
C 519.751 307.385 522.495 306.322 525.125 305.014
C 536.527 299.343 546.275 291.682 554.656 282.106
C 563.215 272.328 568.863 259.293 570.585 246.446
C 571.925 236.446 571.257 226.074 571.25 216.006
C 571.246 210.519 571.23 205.033 571.232 199.546
C 571.233 196.717 571.656 193.535 571.135 190.754
C 558.344 188.378 545.621 185.349 532.904 182.595
C 529.23 181.799 525.555 181.025 521.888 180.19
C 520.518 179.878 518.426 179.885 517.265 179.138
C 517.045 173.806 517.241 168.422 517.199 163.084
C 517.434 162.561 520.222 163.341 520.813 163.459
C 524.919 164.283 529.01 165.157 533.109 166.016
C 546.566 168.838 560.032 171.623 573.482 174.476
C 576.878 175.196 580.286 175.887 583.688 176.577
C 584.68 176.778 586.697 176.753 587.382 177.516
C 586.664 193.617 587.328 209.88 587.289 225.999
C 587.27 233.603 587.643 241.255 586.628 248.8
C 583.24 273.994 567.843 295.832 547.518 310.463
C 539.586 316.172 530.691 320.43 521.629 324.013
C 518.785 325.138 514.356 327.749 511.271 326.946
C 490.251 321.479 469.907 308.426 456.402 291.449
C 453.004 287.177 449.802 282.805 447.115 278.043
C 445.62 275.393 444.634 272.046 442.783 269.651
C 441.355 267.805 439.143 266.49 437.381 264.978
C 434.538 262.538 431.956 259.739 429.485 256.929
C 427.049 254.161 425.104 250.144 422.324 247.806 Z"
opacity="1" fill="rgb(6,38,58)" fill-rule="evenodd" />
<path d="
M 422.211 506.776
C 423.145 506.693 424.096 506.716 425.021 506.604
C 425.414 506.921 425.139 507.99 425.462 508.5
C 426.817 507.889 427.333 506.545 428.961 506.298
C 429.885 506.158 430.873 506.153 431.801 506.252
C 437.616 506.875 436.525 514.361 436.604 518.496
C 436.619 519.331 436.368 521.45 436.799 522.112
C 435.721 521.77 434.512 522.085 433.448 521.771
C 433.283 518.38 434.572 512.609 432.389 509.754
C 430.667 507.501 426.996 508.253 425.795 510.713
C 424.682 512.994 425.146 516.396 425.218 518.872
C 425.246 519.832 425.15 520.972 425.391 521.896
C 424.403 521.867 423.377 521.816 422.396 521.892
C 421.632 521.098 422.069 518.799 422.096 517.725
C 422.189 514.077 422.116 510.424 422.211 506.776 Z"
opacity="1" fill="rgb(17,49,74)" fill-rule="evenodd" />
<path d="
M 448.728 506.769
C 449.606 506.561 450.386 506.564 451.28 506.657
C 451.512 507.533 451.344 508.396 451.361 509.291
C 451.617 509.858 453.332 507.458 453.651 507.161
C 454.776 506.114 456.221 506.258 457.496 506.944
C 457.821 507.566 457.78 508.109 457.673 508.788
C 456.496 509.749 454.651 509.287 453.334 510.437
C 450.306 513.079 452.164 518.574 451.834 522.117
C 450.8 522.155 449.755 522.186 448.72 522.158
C 448.79 517.035 448.538 511.885 448.728 506.769 Z"
opacity="1" fill="rgb(19,54,74)" fill-rule="evenodd" />
<path d="
M 460.501 501.646
C 460.56 501.15 460.61 500.776 460.773 500.292
C 461.654 499.915 462.576 499.792 463.422 500.309
C 463.841 501.106 463.926 501.987 463.445 502.778
C 462.679 503.28 461.944 503.465 461.107 503.009
C 460.732 502.557 460.632 502.216 460.501 501.646 Z"
opacity="1" fill="rgb(15,46,66)" fill-rule="evenodd" />
<path d="
M 460.689 410.161
C 464.938 409.374 469.694 409.917 474.007 409.914
C 476.264 409.912 478.522 409.917 480.779 409.888
C 490.972 409.758 507.139 408.882 512.137 420.153
C 512.91 421.895 513.385 423.792 513.617 425.679
C 513.878 427.79 513.986 430.217 513.557 432.311
C 512.881 435.614 511.658 438.557 509.123 440.886
C 508.032 441.887 505.239 442.658 504.612 443.823
C 507.544 445.141 510.249 446.05 512.423 448.603
C 518.876 456.184 517.514 469.836 509.678 475.948
C 503.369 480.869 495.151 481.215 487.499 481.266
C 482.833 481.297 478.167 481.323 473.501 481.308
C 470.667 481.299 467.832 481.268 464.998 481.281
C 463.796 481.286 462.208 481.62 461.101 481.137
C 460.679 457.513 460.354 433.79 460.689 410.161 Z
M 475.371 422.972
C 474.771 424.298 475.181 426.616 475.197 428.07
C 475.236 431.761 475.357 435.48 475.256 439.165
C 479.083 439.344 482.939 439.225 486.772 439.266
C 489.589 439.296 492.604 439.456 495.173 438.091
C 500.563 435.226 501.289 427.046 495.556 424.113
C 492.654 422.629 489.169 422.767 486 422.79
C 482.484 422.816 478.872 422.685 475.371 422.972 Z
M 475.257 451.084
C 475.268 455.222 475.199 459.363 475.227 463.503
C 475.237 465.154 474.908 467.039 475.252 468.65
C 482.671 467.568 491.561 470.807 498.437 466.804
C 503.921 463.611 503.143 455.393 497.834 452.531
C 495.22 451.122 492.384 451.146 489.506 451.035
C 484.761 450.852 479.998 451.014 475.257 451.084 Z"
opacity="1" fill="rgb(7,39,60)" fill-rule="evenodd" />
<path d="
M 460.761 506.27
C 461.728 506.364 462.692 506.371 463.662 506.327
C 464.105 509.935 463.595 513.853 463.665 517.499
C 463.688 518.726 464.191 520.919 463.614 522.014
C 462.709 521.968 461.772 521.957 460.87 521.995
C 460.143 521.164 460.623 518.88 460.631 517.813
C 460.659 514.028 460.247 510.012 460.761 506.27 Z"
opacity="0.996" fill="rgb(19,46,72)" fill-rule="evenodd" />
<path d="
M 466.99 518.138
C 467.019 517.426 466.953 517.789 467.217 517.056
C 469.932 516.53 469.974 519.18 472.151 519.896
C 473.739 520.418 479.234 519.297 477.073 516.711
C 474.78 513.968 467.149 516.494 467.318 511.034
C 467.334 510.521 467.412 509.985 467.614 509.508
C 469.062 506.094 473.896 505.563 476.896 506.944
C 478.022 507.462 480.63 509.515 479.439 510.986
C 478.739 511.187 478.079 511.343 477.373 511.109
C 476.335 509.615 475.654 508.575 473.653 508.539
C 471.877 508.507 469.504 509.44 470.399 511.598
C 470.994 512.259 471.731 512.65 472.599 512.843
C 475.635 513.516 483.058 514.698 479.82 519.617
C 479.329 520.363 478.701 520.962 477.961 521.456
C 474.738 523.083 467.576 522.789 466.99 518.138 Z"
opacity="1" fill="rgb(12,51,69)" fill-rule="evenodd" />
<path d="
M 483.666 500.229
C 484.663 500.235 486.028 499.967 486.953 500.392
C 486.819 504.641 486.997 508.906 486.959 513.154
C 487.03 513.685 489.092 511.658 489.345 511.378
C 490.722 509.852 492.294 507.102 494.486 506.748
C 495.006 506.664 496.451 506.561 496.762 506.986
C 496.572 507.769 495.792 508.365 495.253 508.94
C 493.864 510.424 492.504 511.958 491.163 513.486
C 492.397 515.346 494.134 517.174 495.621 518.858
C 496.359 519.693 497.69 520.778 497.863 521.931
C 497.489 522.512 495.175 522.05 494.548 521.947
C 492.344 520.814 490.578 517.196 489.014 515.289
C 485.688 515.297 487.917 520.285 486.811 521.967
C 485.966 521.877 484.501 522.194 483.816 521.714
C 483.564 514.579 484.233 507.346 483.666 500.229 Z"
opacity="1" fill="rgb(14,53,71)" fill-rule="evenodd" />
<path d="
M 508.018 501.108
C 507.997 500.913 507.977 500.718 507.956 500.523
C 508.677 499.913 510.159 500.039 511.099 499.805
C 511.32 502.712 511.214 505.84 511.108 508.76
C 511.814 508.924 513.047 507.397 513.668 507.034
C 515.742 505.822 518.992 505.91 520.939 507.318
C 525.413 510.552 525.439 519.299 520.042 521.638
C 516.252 523.281 513.907 521.362 510.949 519.421
C 510.865 520.264 510.854 521.164 510.634 521.986
C 509.787 522.143 508.793 521.913 507.92 521.938
C 507.21 520.265 507.886 516.987 507.974 515.143
C 508.197 510.487 508.3 505.758 508.018 501.108 Z
M 511.434 513.098
C 511.149 515.069 511.41 516.944 512.886 518.407
C 515.832 521.327 520.256 519.56 520.849 515.569
C 521.202 513.196 520.549 510.444 518.429 509.061
C 515.406 507.088 511.864 510.134 511.434 513.098 Z"
opacity="1" fill="rgb(14,52,68)" fill-rule="evenodd" />
<path d="
M 511.849 677.464
C 512.59 676.811 513.438 676.93 514.396 676.918
C 516.432 676.891 518.47 676.922 520.506 676.922
C 528.34 676.922 536.173 676.92 544.006 676.919
C 575.006 676.918 606.006 676.948 637.006 676.916
C 724.837 676.824 812.669 676.926 900.5 676.84
C 928.667 676.813 956.834 676.769 985 676.807
C 993.834 676.819 1002.668 676.811 1011.501 676.855
C 1015.413 676.874 1020.192 676.17 1023.998 677.022
C 1024.448 683.759 1023.96 690.734 1023.96 697.498
C 1023.959 711.665 1023.96 725.832 1023.961 739.999
C 1023.963 782.832 1023.962 825.666 1023.961 868.499
C 1023.961 882.999 1023.962 897.499 1023.96 911.999
C 1023.96 919.02 1023.18 926.552 1023.999 933.517
C 1022.951 933.008 1021.639 933.247 1020.502 933.252
C 1017.835 933.265 1015.167 933.226 1012.5 933.213
C 1002.834 933.163 993.168 933.115 983.501 933.11
C 949.168 933.094 914.834 933.103 880.5 933.112
C 798.334 933.132 716.168 933.111 634.002 933.131
C 606.835 933.137 579.669 933.153 552.503 933.167
C 543.502 933.171 534.502 933.171 525.502 933.166
C 520.959 933.164 516.235 932.812 511.712 933.206
C 512.069 911.477 511.816 889.734 511.819 868.002
C 511.824 831.169 511.871 794.335 511.839 757.501
C 511.824 739.668 511.817 721.835 511.808 704.002
C 511.806 698.168 511.816 692.334 511.816 686.5
C 511.817 683.553 511.51 680.38 511.849 677.464 Z
M 614.979 803.126
C 614.819 805.461 615.079 807.748 615.179 810.075
C 615.35 814.06 615.299 818.101 617.014 821.8
C 620.22 828.714 624.824 833.587 631.411 837.478
C 633.874 838.934 636.984 840.693 639.907 840.893
C 643.041 841.108 647.329 838.608 649.983 837.138
C 656.854 833.331 662.734 827.425 664.832 819.655
C 665.754 816.236 665.81 812.787 665.836 809.272
C 665.865 805.331 666.279 801.248 665.998 797.323
C 665.924 796.293 666.266 794.181 665.612 793.395
C 664.307 792.921 662.456 792.901 661.338 792.073
C 659.865 790.983 659.028 788.763 657.798 787.379
C 655.492 784.784 652.49 782.777 649.277 781.483
C 637.982 776.936 624.603 781.065 618.309 791.549
C 616.05 795.31 615.685 798.925 614.979 803.126 Z
M 677.261 820.934
C 676.958 833.528 699.274 835.59 703.261 824.734
C 703.594 823.828 703.801 822.84 703.831 821.875
C 704.064 814.306 695.536 812.95 689.814 812.034
C 686.869 811.562 682.867 809.782 684.667 806.048
C 688.257 801.595 696.026 803.759 697.327 809.045
C 699.051 809.658 701.351 808.931 703.183 809.148
C 702.322 805.991 701.817 802.938 698.956 800.898
C 692.728 796.457 679.986 797.724 678.415 806.588
C 677.05 814.289 684.087 816.843 690.276 817.853
C 692.66 818.241 697.015 818.559 697.438 821.658
C 697.855 824.707 694.592 826.159 692.089 826.303
C 688.058 826.535 685.015 824.962 683.646 821.176
C 683.316 820.909 682.321 820.99 681.883 820.965
C 680.32 820.879 678.824 820.847 677.261 820.934 Z
M 706.987 823.623
C 706.909 829.899 712.933 832.88 718.492 830.792
C 719.962 830.24 720.901 829.099 722.045 828.098
C 722.348 829.046 721.687 830.388 722.148 831.168
C 723.626 830.985 725.159 831.081 726.648 831.062
C 727.09 831.057 728.144 831.298 728.464 831.016
C 727.997 826.571 728.319 822.029 728.215 817.563
C 728.151 814.792 727.917 811.614 725.887 809.497
C 721.405 804.823 707.48 806.332 708.293 814.541
C 709.449 815.315 711.488 815.01 712.746 814.618
C 713.783 813.922 714.548 812.88 715.644 812.252
C 717.458 811.213 720.862 811.465 721.733 813.64
C 722.135 814.643 721.989 815.695 722.18 816.724
C 716.67 816.934 707.649 816.198 706.987 823.623 Z
M 730.955 810.111
C 730.876 810.938 730.916 811.76 730.878 812.591
C 732.262 812.604 733.625 812.138 735.034 812.206
C 734.693 816.789 735.054 821.552 735.064 826.155
C 735.066 827.149 734.637 830.25 735.311 830.904
C 737.243 830.687 739.216 830.965 741.156 830.897
C 740.277 825.054 740.762 818.543 741.118 812.66
C 742.918 812.586 744.966 812.488 746.734 812.857
C 746.313 811.217 746.778 809.269 746.623 807.566
C 744.856 807.256 743.127 807.75 741.382 807.575
C 741.557 806.29 741.473 804.941 741.603 803.638
C 742.988 802.771 744.862 803.922 746.244 803.302
C 746.138 801.736 746.365 800.142 746.238 798.564
C 745.567 798.087 744.262 798.254 743.457 798.246
C 740.451 798.216 736.962 799.106 735.627 802.158
C 734.896 803.829 735.646 805.922 734.807 807.489
C 733.681 807.334 732.513 807.354 731.377 807.354
C 731.001 808.231 731.073 809.174 730.955 810.111 Z
M 747.911 817.088
C 746.372 826.924 754.947 833.407 764.192 830.934
C 766.974 830.19 768.934 828.293 770.021 825.666
C 770.235 825.147 770.931 823.899 770.66 823.355
C 768.996 823.266 767.301 823.235 765.646 823.064
C 765.358 823.647 765.036 824.187 764.642 824.705
C 761.043 829.13 755.208 825.604 753.828 821.331
C 759.375 821.042 764.996 821.508 770.552 821.338
C 770.643 821.341 770.68 819.327 770.681 819.077
C 770.693 816.454 770.231 813.834 768.807 811.587
C 765.905 807.006 758.643 805.633 753.962 808.204
C 750.632 810.033 748.678 813.505 747.911 817.088 Z
M 775.509 800.133
C 775.17 804.214 775.474 808.415 775.467 812.51
C 775.456 818.656 775.257 824.821 775.416 830.962
C 779.563 830.628 783.844 830.875 788.005 830.92
C 790.471 830.947 793.151 831.189 795.54 830.442
C 799.789 829.113 802.317 824.019 801.135 819.779
C 800.729 818.321 799.853 816.816 798.633 815.889
C 798.053 815.449 797.052 815.115 796.737 814.472
C 802 810.473 800.868 802.579 794.834 799.891
C 792.545 798.87 789.747 799.027 787.299 799.043
C 783.45 799.069 779.583 799.153 775.739 799.115
C 775.524 799.906 775.585 799.563 775.509 800.133 Z
M 805.888 807.954
C 805.815 808.075 805.742 808.197 805.669 808.318
C 805.664 812.224 805.663 816.136 805.608 820.042
C 805.576 822.305 805.344 824.86 806.246 826.993
C 807.972 831.069 813.667 832.683 817.66 830.878
C 819.352 830.113 820.081 828.682 821.036 827.226
C 821.342 828.429 820.602 829.934 821.062 831.083
C 823.127 830.816 825.288 831.316 827.32 830.921
C 827.44 825.455 827.158 819.972 827.146 814.504
C 827.141 812.441 826.7 809.747 827.192 807.777
C 825.241 807.895 823.235 807.722 821.276 807.735
C 821.327 811.108 821.271 814.5 821.232 817.874
C 821.21 819.716 821.425 821.779 820.701 823.519
C 819.287 826.918 814.453 827.953 812.437 824.429
C 811.54 822.861 811.77 820.75 811.762 819.006
C 811.745 815.263 812.012 811.416 811.704 807.687
C 809.77 807.875 807.824 807.742 805.888 807.954 Z
M 832.964 798.815
C 832.993 806.198 832.799 813.601 832.807 820.991
C 832.81 824.082 832.192 827.926 832.91 830.927
C 834.854 830.847 836.863 831.177 838.788 831.006
C 838.854 829.978 838.492 828.944 838.51 827.897
C 838.778 827.118 839.865 828.93 840.381 829.494
C 841.514 830.73 843.034 831.296 844.687 831.42
C 849.359 831.77 853.716 829.57 855.131 824.88
C 857.075 818.434 855.781 807.694 847.33 807.116
C 846.236 807.041 845.09 807.077 844.021 807.333
C 841.301 807.984 840.92 810.225 838.889 811.485
C 838.645 810.446 838.924 809.086 838.92 808
C 838.906 804.917 839.055 801.769 838.779 798.696
C 836.846 798.769 834.899 798.773 832.964 798.815 Z
M 860.427 798.85
C 860.862 806.313 860.342 814.008 860.312 821.493
C 860.3 824.48 859.843 827.988 860.446 830.914
C 862.452 830.847 864.472 830.967 866.48 830.964
C 866.444 829.626 866.156 828.27 866.084 826.917
C 867.182 828.217 868.345 830.06 869.978 830.733
C 871.143 831.213 872.502 831.312 873.749 831.302
C 886.886 831.191 887.062 807.069 873.864 807.088
C 871.739 807.091 869.607 807.618 868.197 809.313
C 867.717 809.891 867.061 811.792 866.438 812.018
C 865.914 807.631 866.674 803.101 866.269 798.705
C 864.33 798.827 862.371 798.768 860.427 798.85 Z
M 888.006 827.618
C 887.927 828.808 887.915 830.003 887.834 831.192
C 889.343 831.789 892.585 831.148 894.264 831.128
C 894.427 825.113 894.125 819.028 894.116 813.004
C 894.109 808.342 894.442 803.507 894.075 798.866
C 892.17 798.808 890.257 798.732 888.355 798.899
C 887.603 801.026 888.122 804.226 888.111 806.495
C 888.089 810.995 888.108 815.497 888.147 819.997
C 888.169 822.468 888.436 825.181 888.006 827.618 Z
M 898.433 816.092
C 896.834 825.275 902.883 832.551 912.334 831.288
C 915.582 830.855 918.609 829.41 920.239 826.457
C 920.705 825.614 921.512 824.378 921.179 823.407
C 919.575 823.006 917.568 822.916 915.95 823.299
C 912.977 828.501 905.44 827.011 904.256 821.303
C 909.871 821.009 915.706 821.919 921.286 821.263
C 921.833 817.134 921.209 813.078 918.005 810.08
C 911.329 803.833 900.485 807.599 898.433 816.092 Z"
opacity="1" fill="rgb(7,38,58)" fill-rule="evenodd" />
<path d="
M 524.305 429.77
C 528.935 429.676 533.614 429.548 538.244 429.726
C 538.969 432.025 538.285 435.571 538.283 438
C 538.276 444.275 538.277 450.551 538.327 456.826
C 538.352 459.95 538.079 463.811 539.608 466.648
C 541.657 470.45 547.324 471.772 551.13 469.831
C 553.319 468.714 554.851 466.731 555.843 464.536
C 557.505 460.859 556.914 456.424 556.91 452.5
C 556.902 444.996 556.885 437.491 556.854 429.988
C 559.758 429.288 563.269 429.733 566.254 429.757
C 567.667 429.768 569.472 429.501 570.835 429.856
C 570.508 433.01 570.754 436.329 570.75 439.505
C 570.74 445.838 570.737 452.172 570.734 458.505
C 570.732 463.505 570.723 468.505 570.726 473.504
C 570.728 476.013 570.424 478.74 570.772 481.224
C 566.293 481.278 561.791 481.021 557.317 481.206
C 557.337 479.274 557.588 477.044 557.259 475.141
C 554.32 477.588 552.523 480.141 548.694 481.4
C 540.079 484.234 528.649 481.207 525.571 471.943
C 523.823 466.681 524.27 460.964 524.291 455.503
C 524.323 446.927 524.402 438.345 524.305 429.77 Z"
opacity="1" fill="rgb(6,39,60)" fill-rule="evenodd" />
<path d="
M 526.857 511.558
C 528.393 506.483 535.211 504.431 539.425 507.77
C 542.138 509.919 541.701 512.241 542.443 515.208
C 539.668 514.958 536.784 515.269 533.998 515.32
C 532.483 515.347 530.939 515.109 529.508 515.698
C 530.267 519.285 534.294 521.335 537.677 519.533
C 538.768 518.951 539.125 517.715 539.918 516.856
C 540.633 516.617 541.277 516.666 542.011 516.806
C 543.652 518.536 539.59 521.429 538.252 521.891
C 531.461 524.233 524.979 518.656 526.857 511.558 Z
M 529.456 512.591
C 529.397 512.81 529.337 513.029 529.278 513.249
C 532.255 513.904 536.451 513.285 539.452 512.865
C 539.504 509.701 535.354 507.822 532.758 508.77
C 530.918 509.443 530.194 510.926 529.456 512.591 Z"
opacity="1" fill="rgb(11,46,63)" fill-rule="evenodd" />
<path d="
M 543.797 506.354
C 544.868 506.367 545.921 506.394 546.989 506.461
C 546.994 504.974 546.493 503.017 547.084 501.591
C 547.939 499.524 552.553 499.128 554.278 500.026
C 554.574 500.713 554.821 501.504 554.848 502.257
C 553.26 502.11 551.619 502.236 550.049 502.504
C 549.776 503.854 549.914 505.209 549.825 506.575
C 551.128 507.103 553.32 505.702 554.551 506.406
C 554.665 506.987 554.746 508.515 554.236 508.861
C 552.821 508.753 551.372 508.69 549.958 508.866
C 549.751 513.188 550.372 517.661 549.962 521.945
C 548.959 521.865 547.913 521.845 546.912 521.944
C 546.414 520.913 546.813 519.183 546.835 518.037
C 546.893 515.031 546.861 512.026 546.879 509.026
C 545.773 507.663 543.739 510.244 543.707 507.494
C 543.696 506.584 543.623 506.985 543.797 506.354 Z"
opacity="1" fill="rgb(11,45,66)" fill-rule="evenodd" />
<path d="
M 555.482 514.114
C 555.605 507.928 563.088 503.91 568.44 507.406
C 571.186 509.2 572 512.36 571.884 515.479
C 571.657 521.55 564.02 524.012 559.182 521.349
C 556.608 519.932 555.425 516.944 555.482 514.114 Z
M 558.878 512.045
C 558.1 514.375 558.394 517.361 560.358 519.01
C 563.134 521.342 567.565 519.798 568.594 516.443
C 569.312 514.1 568.843 511.178 566.878 509.579
C 564.183 507.384 559.967 508.784 558.878 512.045 Z"
opacity="1" fill="rgb(8,40,61)" fill-rule="evenodd" />
<path d="
M 575.484 515.117
C 575.852 512.385 575.568 509.512 575.719 506.753
C 578.333 506.205 578.485 506.941 578.446 509.284
C 578.476 509.733 579.904 507.965 580.145 507.688
C 581.11 506.579 582.614 505.899 584.094 506.343
C 584.464 507.207 584.51 508.382 584.305 509.293
C 583.438 509.35 582.434 509.051 581.617 509.376
C 577.187 511.138 578.236 518.002 578.817 521.9
C 577.676 521.932 576.558 521.738 575.418 521.914
C 575.018 519.85 575.417 517.23 575.484 515.117 Z"
opacity="1" fill="rgb(14,43,65)" fill-rule="evenodd" />
<path d="
M 581.413 410.117
C 581.494 409.448 581.475 409.852 581.378 408.904
C 584.188 408.516 587.169 408.781 590.006 408.769
C 591.533 408.762 593.471 408.473 594.94 408.889
C 594.361 417.816 594.829 427.083 594.959 436.034
C 596.271 435.33 597.213 433.388 598.376 432.361
C 600.912 430.122 604.311 428.781 607.653 428.381
C 610.011 428.099 612.586 428.125 614.924 428.559
C 630.977 431.534 633.942 452.09 630.504 465.315
C 629.461 469.327 627.659 473.313 624.766 476.345
C 619.717 481.634 611.307 483.618 604.352 481.582
C 602.015 480.897 599.674 479.836 597.869 478.164
C 597.192 477.536 596.562 476.836 595.984 476.12
C 595.779 475.865 595.679 475.298 595.359 475.364
C 595.13 475.412 595.157 476.812 595.155 477.003
C 595.134 478.445 594.79 479.889 594.839 481.349
C 590.47 481.009 585.975 481.341 581.597 481.387
C 580.714 473.197 581.845 464.734 581.534 456.49
C 581.184 447.181 581.386 437.815 581.391 428.497
C 581.395 422.409 581.034 416.19 581.413 410.117 Z
M 595.436 451.097
C 594.584 456.448 594.606 464.019 598.857 468.036
C 602.64 471.612 609.679 471.56 613.576 468.215
C 616.026 466.111 617.303 462.743 617.765 459.621
C 618.582 454.102 618.422 447.223 614.204 443.014
C 610.388 439.208 603.109 439.257 599.227 442.994
C 597.055 445.085 595.902 448.169 595.436 451.097 Z"
opacity="1" fill="rgb(6,38,59)" fill-rule="evenodd" />
<path d="
M 585.932 512.089
C 586.885 507.109 593.414 504.589 597.744 506.874
C 600.837 508.506 602.076 511.891 601.835 515.257
C 597.62 515.24 592.895 514.698 588.746 515.412
C 589.587 518.918 592.944 521.202 596.495 519.503
C 598.412 518.587 598.765 515.979 601.457 517.534
C 599.724 522.846 592.119 523.62 588.246 520.27
C 585.883 518.226 585.563 515.006 585.932 512.089 Z
M 588.916 512.653
C 588.902 512.824 588.888 512.994 588.874 513.164
C 592.006 513.295 595.525 513.556 598.61 512.987
C 599.622 512.202 596.738 509.236 596.193 508.842
C 593.081 506.589 589.878 509.947 588.916 512.653 Z"
opacity="1" fill="rgb(14,49,68)" fill-rule="evenodd" />
<path d="
M 610.917 506.583
C 611.958 506.66 613.58 506.323 614.501 506.867
C 614.857 509.119 616.092 511.313 616.905 513.429
C 617.668 515.418 618.033 517.762 619.006 519.633
C 619.706 518.512 619.857 517.154 620.221 515.911
C 621.103 512.902 621.934 509.271 623.415 506.526
C 624.444 506.455 625.298 506.48 626.304 506.707
C 626.011 509.161 624.489 511.647 623.692 513.979
C 622.238 518.235 621.192 523.128 619.014 527.077
C 618.102 528.733 614.649 530.711 612.791 529.171
C 612.513 528.94 612.364 527.675 612.337 527.562
C 613.32 527.216 614.329 527.264 615.356 527.125
C 616.952 526.411 617.433 523.643 617.02 522.139
C 615.586 516.92 613.23 511.47 610.917 506.583 Z"
opacity="1" fill="rgb(13,47,67)" fill-rule="evenodd" />
<path d="
M 618.968 802.612
C 620.478 791.537 629.619 782.466 641.354 783.64
C 645.637 784.068 650.181 785.769 653.414 788.679
C 653.876 789.095 656.26 791.002 655.964 791.713
C 655.159 791.716 654.417 791.236 653.619 791.091
C 650.041 790.44 646.57 789.043 642.973 788.523
C 639.487 788.02 635.752 788.416 632.86 790.588
C 628.878 793.579 628.218 799.574 630.986 803.578
C 633.853 807.726 638.888 807.288 642.553 810.099
C 644.48 811.578 644.955 814.146 643.631 816.226
C 641.555 819.488 637.183 818.791 633.947 818.241
C 625.779 816.852 618.289 811.78 618.968 802.612 Z"
opacity="1" fill="rgb(10,40,61)" fill-rule="evenodd" />
<path d="
M 619.82 815.063
C 625.84 820.699 629.369 829.317 638.197 831.148
C 646.392 832.848 654.289 825.027 656.609 817.75
C 657.727 814.243 657.795 810.652 657.71 807.003
C 657.665 805.038 658.079 802.296 657.384 800.451
C 654.902 798.93 652.037 798.62 649.253 797.933
C 646.962 797.368 644.378 796.435 642.003 796.746
C 641.246 797.49 641.507 799.05 642.142 799.865
C 644.923 801.829 649.806 802.562 653.101 803.382
C 653.489 803.791 653.445 804.7 653.477 805.253
C 653.576 806.956 653.714 808.641 653.698 810.351
C 653.638 816.763 650.732 822.616 644.943 825.719
C 641.076 827.792 636.836 827.217 633.349 824.696
C 632.138 823.82 630.691 822.729 630.16 821.304
C 634.087 822.23 638.385 823.169 642.341 821.802
C 647.269 820.1 649.734 813.419 647.176 808.917
C 644.668 804.505 637.576 805.456 634.515 801.463
C 631.868 798.01 634.05 793.404 638.101 792.518
C 640.888 791.909 643.607 793.245 646.233 793.992
C 647.887 794.463 649.622 794.713 651.306 795.059
C 654.624 795.741 658.552 795.914 661.653 797.299
C 662.224 798.056 661.843 799.706 661.797 800.612
C 661.666 803.237 661.708 805.864 661.69 808.492
C 661.664 812.515 661.524 816.511 660.035 820.31
C 657.123 827.739 649.73 834.311 641.874 836.148
C 638.84 836.857 635.902 835.348 633.331 833.879
C 626.866 830.186 620.006 822.959 619.82 815.063 Z"
opacity="1" fill="rgb(11,38,58)" fill-rule="evenodd" />
<path d="
M 627.437 513.106
C 628.277 507.521 635.127 504.164 640.072 507.167
C 643.173 509.05 644.334 512.848 643.84 516.329
C 643.048 521.912 635.642 523.938 631.164 521.44
C 628.209 519.792 626.948 516.363 627.437 513.106 Z
M 630.918 512.055
C 630.206 513.949 630.33 516.627 631.702 518.189
C 634.151 520.976 638.954 520.572 640.372 516.952
C 641.385 514.364 640.768 510.888 638.42 509.229
C 635.723 507.323 631.999 509.177 630.918 512.055 Z"
opacity="1" fill="rgb(8,45,64)" fill-rule="evenodd" />
<path d="
M 640.24 408.753
C 644.721 408.618 649.216 408.814 653.7 408.723
C 653.992 410.739 653.717 412.965 653.725 415.005
C 653.752 421.896 653.054 429.27 653.9 436.103
C 655.195 435.248 656.033 433.571 657.243 432.531
C 659.825 430.311 662.771 428.97 666.112 428.414
C 676.291 426.719 685.231 432.926 688.587 442.336
C 693.976 457.448 689.035 480.669 670.268 482.206
C 667.594 482.425 664.922 482.228 662.347 481.452
C 658.797 480.383 656.114 478.395 653.563 475.772
C 653.76 477.607 653.532 479.414 653.672 481.227
C 649.328 481.027 644.669 480.956 640.327 481.192
C 639.389 457.079 640.88 432.876 640.24 408.753 Z
M 653.938 452.609
C 653.331 457.704 653.753 464.365 657.707 468.14
C 661.615 471.87 668.613 471.632 672.498 467.965
C 675.116 465.494 676.335 462.036 676.742 458.522
C 677.342 453.339 676.722 446.694 672.625 442.944
C 668.844 439.483 661.926 439.287 658.198 442.91
C 655.654 445.382 654.351 449.146 653.938 452.609 Z"
opacity="1" fill="rgb(7,39,59)" fill-rule="evenodd" />
<path d="
M 646.929 506.842
C 647.327 506.313 649.522 506.654 650.214 506.727
C 650.058 510.078 649.29 515.158 650.643 518.28
C 651.982 521.37 656.342 520.074 657.623 517.621
C 659.259 514.49 657.573 509.929 658.144 506.55
C 658.515 506.544 660.989 506.197 661.195 506.585
C 661.68 511.511 660.257 517.073 661.397 521.9
C 660.404 521.864 659.346 521.773 658.372 521.971
C 658.231 521.272 658.387 520.448 658.214 519.788
C 655.256 523.14 649.374 523.55 647.535 518.897
C 646.143 515.376 646.968 510.562 646.929 506.842 Z"
opacity="1" fill="rgb(13,46,70)" fill-rule="evenodd" />
<path d="
M 672.425 518.594
C 672.429 518.459 672.433 518.323 672.437 518.188
C 673.001 517.341 673.712 517.242 674.633 517.011
C 675.496 517.781 675.922 518.946 676.973 519.534
C 679.129 520.741 683.208 519.861 682.628 516.843
C 681.802 515.761 680.339 515.809 679.099 515.651
C 677.009 515.382 674.006 514.905 672.993 512.73
C 671.934 510.454 673.342 507.88 675.429 506.891
C 678.909 505.243 685.07 506.187 685.259 510.823
C 684.514 511.406 683.624 511.466 682.734 511.191
C 681.922 510.112 681.66 508.872 680.172 508.534
C 678.152 508.075 674.962 509.299 676.131 511.812
C 678.542 514.428 683.385 512.392 685.454 515.758
C 686.707 517.796 685.149 520.468 683.305 521.429
C 680.207 523.044 673.446 522.662 672.425 518.594 Z"
opacity="1" fill="rgb(14,48,66)" fill-rule="evenodd" />
<path d="
M 687.175 506.771
C 688.327 506.649 689.54 506.421 690.68 506.704
C 690.975 509.616 691.956 512.528 692.846 515.306
C 693.113 516.14 693.266 517.841 693.986 518.358
C 694.67 517.719 694.82 515.7 695.01 514.811
C 695.601 512.036 696.602 509.339 697.379 506.612
C 698.522 506.455 699.802 506.215 700.938 506.483
C 701.769 510.589 703.014 515.038 704.543 518.939
C 705.332 519.122 705.273 516.477 705.387 515.967
C 706.076 512.883 706.495 509.483 707.646 506.538
C 708.747 506.467 709.76 506.495 710.85 506.662
C 710.556 508.304 709.732 509.826 709.329 511.445
C 708.509 514.741 708.049 518.919 706.263 521.845
C 705.202 522.267 703.805 522.122 702.698 521.932
C 701.923 521.467 701.796 520.275 701.571 519.441
C 701.011 517.374 700.56 515.265 700.132 513.166
C 699.963 512.342 699.865 510.515 698.853 510.834
C 697.547 514.416 696.869 518.151 695.796 521.793
C 694.689 522.051 693.367 521.937 692.246 521.813
C 689.917 517.415 688.468 511.575 687.175 506.771 Z"
opacity="1" fill="rgb(14,49,71)" fill-rule="evenodd" />
<path d="
M 698.871 408.758
C 703.289 408.559 708.253 408.183 712.637 408.782
C 712.812 425.674 712.529 442.598 712.624 459.501
C 712.664 466.623 711.951 474.167 712.734 481.24
C 708.208 481.115 703.673 481.223 699.146 481.175
C 698.481 473.52 698.922 465.677 698.91 457.996
C 698.885 441.589 699.128 425.16 698.871 408.758 Z"
opacity="1" fill="rgb(6,39,60)" fill-rule="evenodd" />
<path d="
M 712.885 516.556
C 714.539 512.546 720.366 512.774 723.835 512.66
C 724.794 510.729 722.44 508.334 720.627 508.263
C 719.5 508.218 718.092 508.265 717.257 509.14
C 716.607 509.821 716.599 511.062 715.615 511.372
C 714.793 511.352 713.994 511.324 713.195 511.119
C 712.433 509.97 714.582 508.007 715.426 507.353
C 717.87 505.463 722.133 505.503 724.607 507.292
C 728.648 510.215 726.243 517.664 726.932 521.912
C 725.279 521.923 724.051 522.034 723.797 520.094
C 722.335 520.409 721.371 521.818 719.906 522.181
C 716.058 523.136 712.178 520.809 712.885 516.556 Z
M 715.887 517.103
C 715.872 518.363 716.38 519.674 717.654 520.124
C 720.329 520.49 724.852 517.906 723.682 514.696
C 721.032 514.536 718.008 514.552 716.111 516.676
C 716.036 516.818 715.962 516.96 715.887 517.103 Z"
opacity="1" fill="rgb(13,49,73)" fill-rule="evenodd" />
<path d="
M 713.261 822.911
C 715.413 820.454 719.333 821.016 722.258 820.54
C 722.278 823.482 721.699 825.371 718.735 826.47
C 716.044 827.468 712.299 826.399 713.261 822.911 Z"
opacity="1" fill="rgb(10,40,61)" fill-rule="evenodd" />
<path d="
M 719.945 452.106
C 720.767 446.207 722.766 440.687 726.745 436.133
C 733.147 428.808 744.967 426.805 753.916 429.899
C 763.431 433.189 768.846 442.436 769.46 452.127
C 769.597 454.287 770.262 457.556 769.318 459.548
C 760.946 459.905 752.393 459.518 744.004 459.418
C 740.983 459.383 736.213 458.41 733.439 459.636
C 733.977 461.734 733.94 463.625 735.156 465.549
C 738.323 470.559 745.72 472.364 751.037 469.707
C 753.704 468.374 754.418 466.173 756.299 464.183
C 760.499 464.496 764.992 464.644 769.189 464.286
C 769.018 466.352 767.918 468.537 766.987 470.359
C 761.188 481.706 745.911 484.668 734.692 480.201
C 723.344 475.683 718.722 463.656 719.945 452.106 Z
M 733.927 448.579
C 733.803 449.25 733.71 449.933 733.623 450.61
C 741.042 450.387 748.482 451.026 755.895 450.759
C 756.522 441.851 746.52 437.426 739.239 441.138
C 736.157 442.71 735.031 445.534 733.927 448.579 Z"
opacity="1" fill="rgb(7,40,61)" fill-rule="evenodd" />
<path d="
M 730.949 506.836
C 731.737 506.413 732.885 506.578 733.732 506.727
C 733.854 507.267 733.886 507.822 733.934 508.374
C 734.355 509.265 735.277 507.444 735.724 507.076
C 736.626 506.331 737.911 506.175 739.039 506.134
C 742.428 506.012 745.531 507.934 746.374 511.339
C 747.906 517.526 744.181 523.13 737.551 522.192
C 736.086 521.985 735.183 520.716 733.893 520.139
C 733.816 523.044 734.013 525.86 734.256 528.744
C 733.295 528.591 732.136 528.662 731.155 528.668
C 730.32 527.474 730.89 524.202 730.879 522.745
C 730.838 517.478 730.585 512.088 730.949 506.836 Z
M 734.351 512.046
C 733.569 515.021 734.195 518.71 737.27 520.106
C 742.311 520.722 745.259 514.96 742.705 510.729
C 741.263 508.34 737.985 507.369 735.874 509.568
C 735.172 510.298 734.779 511.146 734.351 512.046 Z"
opacity="1" fill="rgb(15,56,74)" fill-rule="evenodd" />
<path d="
M 754.376 816.019
C 755.123 814.364 756.226 812.692 758.054 812.117
C 761.386 811.067 765.348 813.572 764.978 817.28
C 761.345 817.204 757.635 817.453 754.014 817.13
C 754.287 816.311 754.168 816.682 754.376 816.019 Z"
opacity="1" fill="rgb(13,41,68)" fill-rule="evenodd" />
<path d="
M 781.681 804.677
C 784.257 804.005 789.511 803.795 791.991 804.896
C 794.424 805.976 794.857 809.754 792.81 811.411
C 790.078 813.622 784.982 812.696 781.762 812.593
C 781.788 809.954 781.64 807.317 781.681 804.677 Z"
opacity="1" fill="rgb(10,43,66)" fill-rule="evenodd" />
<path d="
M 781.804 817.385
C 785.065 817.459 790.47 816.341 793.39 818.126
C 796.26 819.88 795.574 824.153 792.518 825.222
C 789.248 826.365 785.167 825.475 781.769 825.566
C 781.846 822.846 781.517 820.098 781.804 817.385 Z"
opacity="1" fill="rgb(9,42,66)" fill-rule="evenodd" />
<path d="
M 839.458 816.062
C 840.725 812.461 845.651 809.74 848.43 813.476
C 850.24 815.909 850.4 820.579 849.415 823.354
C 848.284 826.536 843.847 827.576 841.366 825.33
C 838.921 823.116 838.388 819.104 839.458 816.062 Z"
opacity="1" fill="rgb(7,43,65)" fill-rule="evenodd" />
<path d="
M 866.885 817.065
C 867.782 813.308 872.439 809.608 875.721 813.27
C 877.738 815.521 877.776 819.403 877.151 822.194
C 876.272 826.12 871.585 827.78 868.513 824.98
C 866.403 823.057 866.261 819.677 866.885 817.065 Z"
opacity="1" fill="rgb(12,42,61)" fill-rule="evenodd" />
<path d="
M 904.425 816.043
C 905.093 814.351 906.283 812.792 908.02 812.083
C 911.78 810.547 915.412 813.686 915.507 817.444
C 911.685 817.223 907.872 817.228 904.048 817.136
C 904.356 816.338 904.238 816.705 904.425 816.043 Z"
opacity="1" fill="rgb(16,44,67)" fill-rule="evenodd" />

</svg>